<svg width="289" height="289" viewBox="0 0 289 289" fill="none" xmlns="http://www.w3.org/2000/svg">
<path d="M72.2502 168.583H168.583V144.5H72.2502V168.583ZM72.2502 132.458H216.75V108.375H72.2502V132.458ZM72.2502 96.3334H216.75V72.25H72.2502V96.3334ZM24.0835 264.917V48.1667C24.0835 41.5438 26.4416 35.8742 31.158 31.1579C35.8743 26.4415 41.5439 24.0834 48.1668 24.0834H240.833C247.456 24.0834 253.126 26.4415 257.842 31.1579C262.559 35.8742 264.917 41.5438 264.917 48.1667V192.667C264.917 199.29 262.559 204.959 257.842 209.676C253.126 214.392 247.456 216.75 240.833 216.75H72.2502L24.0835 264.917ZM62.0147 192.667H240.833V48.1667H48.1668V206.214L62.0147 192.667Z" fill="#BEBEBE"/>
</svg>
