<svg width="217" height="217" viewBox="0 0 217 217" fill="none" xmlns="http://www.w3.org/2000/svg">
<path d="M52.9833 156.542L89.7104 119.815L113.794 143.898L156.542 101.451V120.417H180.625V60.2083H120.417V84.2917H139.382L113.794 109.88L89.7104 85.7969L36.125 139.683L52.9833 156.542ZM24.0833 216.75C17.4604 216.75 11.7908 214.392 7.07448 209.676C2.35812 204.959 0 199.29 0 192.667V24.0833C0 17.4604 2.35812 11.7908 7.07448 7.07448C11.7908 2.35812 17.4604 0 24.0833 0H192.667C199.29 0 204.959 2.35812 209.676 7.07448C214.392 11.7908 216.75 17.4604 216.75 24.0833V192.667C216.75 199.29 214.392 204.959 209.676 209.676C204.959 214.392 199.29 216.75 192.667 216.75H24.0833ZM24.0833 192.667H192.667V24.0833H24.0833V192.667Z" fill="#BEBEBE"/>
</svg>
